<svg xmlns="http://www.w3.org/2000/svg" xmlns:xlink="http://www.w3.org/1999/xlink" viewBox="0 0 368.07 531.82"><defs><style>.a{fill:#c1dee5;}.a,.b,.c,.d,.e,.f,.g,.h,.i,.j{fill-rule:evenodd;}.b{fill:url(#a);}.c{fill:url(#b);}.d{fill:url(#c);}.e{fill:url(#d);}.f{fill:url(#e);}.g{fill:#79c8fd;}.h{fill:#00a0ff;}.i{fill:url(#f);}.j{fill:url(#g);}</style><linearGradient id="a" x1="151.21" y1="485.78" x2="230.06" y2="485.78" gradientUnits="userSpaceOnUse"><stop offset="0" stop-color="#0275ba"/><stop offset="1" stop-color="#012e4a"/></linearGradient><linearGradient id="b" x1="40.07" y1="362.31" x2="129.35" y2="362.31" gradientUnits="userSpaceOnUse"><stop offset="0.3" stop-color="#012e4a"/><stop offset="1" stop-color="#0275ba"/></linearGradient><linearGradient id="c" x1="273.13" y1="196.41" x2="330.08" y2="139.45" xlink:href="#a"/><linearGradient id="d" x1="145.19" y1="219.87" x2="292.34" y2="367.02" gradientUnits="userSpaceOnUse"><stop offset="0.62" stop-color="#012e4a"/><stop offset="1" stop-color="#0275ba"/></linearGradient><linearGradient id="e" x1="304.15" y1="41.87" x2="368.07" y2="41.87" xlink:href="#a"/><linearGradient id="f" x1="111.62" y1="358.31" x2="223.03" y2="165.35" gradientUnits="userSpaceOnUse"><stop offset="0" stop-color="#79c8fd"/><stop offset="1" stop-color="#dae6de"/></linearGradient><linearGradient id="g" x1="77.59" y1="244.7" x2="171.05" y2="151.25" gradientUnits="userSpaceOnUse"><stop offset="0" stop-color="#0091e6"/><stop offset="1" stop-color="#012e4a"/></linearGradient></defs><title>logo</title><polygon class="a" points="190.26 203.41 193.38 205.01 116.13 230.19 87.25 231.32 86.88 229.19 190.26 203.41"/><path class="b descender" d="M230.06,481c-12.2-11.43-73.79-33.44-78.64-4.32-1.08,6.48.93,29.18,33.25,32.57Z"/><path class="c" d="M119.75,418.52c3.5-16.48-79.73-60,0-104.51C160,291.57,62.27,280,41,349.22c-6.31,20.51,22.84,59.29,40.77,73.17C86,425.65,116.26,435,119.75,418.52Z"/><path class="d" d="M330.3,164.21,302.64,112s2.13,38.19-11.11,45.32c-49.9,26.88,1.59,75.06,33.32,42.23,1.59-1.65,1.45-4.82,1.91-7.14A196.26,196.26,0,0,0,330.3,164.21Z"/><path class="e" d="M101.12,264.91c-30.77,21,1.34,57,0,37-1.37-20.54,106.29-21.08,111.49-22.39,45.78-11.54,48.87,36.12,13.32,56.52-82.14,47.11-24.57,105,29.09,68,4.36-3,8.1-9.4,13.67-15.86,8.1-9.4,14-23.41,21.11-34.74,4.56-7.3,3.83-16,6.21-27.45C312.85,244.61,296.13,131.91,101.12,264.91Z"/><path class="f" d="M343.55,8.16c.33,4.57-.28,10.46-.21,16,.3,21.41,16.55,47.14,24.73,58.53-10.75,3.43-26.3-2.09-34.94-6.14-12.8-6-30.87-23.72-28.82-43.61C307.25,4.38,330.34-1.41,339,.26c3.18.62,4.29,3.7,4.59,7.9"/><path class="g descender" d="M151.42,476.72c-1.79,19.6,12.6,32.54,26.73,41.61,31.72,20.36,104,20.93,135.77-21.17,27.37-36.24,19-90-27.1-58.52-11.62,7.93-19.65,17.62-34.77,28.73C214,495.37,147.89,515.36,151.42,476.72Z"/><path class="h" d="M57.82,260.33C37.73,266.92,10.05,221,5.23,239.67c-21.91,84.83,29,162.93,79.5,184.3-37.09-47.25,13.94-95.44,52.2-114,43.93-21.26,75.78-51.23,84.22-66.8,12.48-23-68.64,25.45-89.12,20C90.32,252.17,100.49,246.35,57.82,260.33Z"/><path class="i" d="M149.23,129.43c-1.75-.57-22.7,4-35.5,7.61-31.4,8.71-61.89,28-81.31,53.54C-53.26,300.8,57.93,352.14,143.61,306.69c31.8-16.86,116.81-36.22,139.73-11.2C303.79,317.81,287.45,366.11,255,404c69.46-58.71,63.47-191.67,19.41-208.54-25.68-9.84-81.66,9.1-82.92,8.68-59.89,24-64.52-4.86-54.8-53C137.82,145.58,139.43,132.79,149.23,129.43Z"/><path class="j" d="M64.63,186.26c-33.17,49,3.9,61,126.88,17.85,1.41-.49-53.75-20-46.37-61.93.76-4.32,4.09-12.75,4.09-12.75s-.11,0-.07,0c.37,0-2.62-.29-16.52,5.65C132.64,135.11,83.67,158.13,64.63,186.26Z"/><path class="g" d="M324.85,199.56c7.48-30.13-56.56-55.26-93.72-67.1-95.77-30.5,16.91-74,64.42-34.38C328.54,125.58,338.78,174,324.85,199.56Z"/><path class="g" d="M327.29,194.2s-1.4,4.37-2.43,5.32a22.16,22.16,0,0,0,1.23-4.93C326.22,192.63,327.29,194.2,327.29,194.2Z"/><path class="g" d="M368.07,82.66c-8.18-11.39-24.43-37.12-24.73-58.53-.07-5.51.54-11.4.21-16-15.74,40.87-2.09,61.51,24.52,74.5"/></svg>
