<?xml version="1.0" encoding="UTF-8" standalone="no"?>
<!DOCTYPE svg PUBLIC "-//W3C//DTD SVG 1.1//EN" "http://www.w3.org/Graphics/SVG/1.1/DTD/svg11.dtd">
<svg width="100%" height="100%" viewBox="0 0 1000 680" version="1.1" xmlns="http://www.w3.org/2000/svg" xmlns:xlink="http://www.w3.org/1999/xlink" xml:space="preserve" xmlns:serif="http://www.serif.com/" style="fill-rule:evenodd;clip-rule:evenodd;stroke-linejoin:round;stroke-miterlimit:2;">
    <g id="Light" transform="matrix(4.48332,0,0,4.48332,176.33,162.931)">
        <path d="M80,31L52,31L52,79L52.001,79C59.426,79 66.548,76.001 71.799,70.663C77.05,65.325 80,58.086 80,50.537L80,31ZM144,0L143.999,0C136.574,0 129.452,2.957 124.201,8.221C118.95,13.486 116,20.626 116,28.07L116,79L116.001,79C123.426,79 130.548,76.043 135.799,70.779C141.05,65.514 144,58.375 144,50.93L144,0ZM28.068,28.074C28.068,20.63 25.111,13.491 19.847,8.227C14.584,2.963 7.444,0.006 0.001,0.006C-0,0.006 0,0.006 0,0.006L0,19.271C0,26.715 2.957,33.854 8.221,39.118C13.484,44.382 20.624,47.338 28.067,47.338L28.068,47.338L28.068,28.074ZM113,27.871C113,20.479 110.05,13.39 104.799,8.163C99.548,2.936 92.427,0 85.001,0L85,0L85,47L113,47L113,27.871ZM80.036,28.068L80.036,28.068C80.036,20.624 77.079,13.485 71.816,8.221C66.552,2.957 59.413,0 51.969,0L24,0L24,0.001C24,7.445 26.957,14.584 32.22,19.848C37.484,25.111 44.623,28.068 52.068,28.068L80.036,28.068Z" style="fill:rgb(242,242,242);"/>
    </g>
</svg>
