<svg width="907.77" height="953.73" xmlns="http://www.w3.org/2000/svg">
 <defs>
  <linearGradient y2="0.49998" x2="0.99999" y1="0.49998" x1="0" id="a">
   <stop stop-color="#012e4a" offset="0"/>
   <stop stop-color="#012e4a" offset="0.3"/>
   <stop stop-color="#0275ba" offset="1"/>
  </linearGradient>
  <linearGradient y2="0.27825" x2="0.99638" y1="0.85596" x1="0.04038" id="b">
   <stop stop-color="#0275ba" offset="0"/>
   <stop stop-color="#012e4a" offset="1"/>
  </linearGradient>
  <linearGradient y2="0.77038" x2="0.9595" y1="0.07697" x1="0.26934" id="c">
   <stop stop-color="#012e4a" offset="0"/>
   <stop stop-color="#012e4a" offset="0.62"/>
   <stop stop-color="#0275ba" offset="1"/>
  </linearGradient>
  <linearGradient y2="0.13112" x2="0.72399" y1="0.83363" x1="0.35976" id="d">
   <stop stop-color="#79c8fd" offset="0"/>
   <stop stop-color="#dae6de" offset="1"/>
  </linearGradient>
  <linearGradient y2="0.21558" x2="0.85201" y1="1.13883" x1="0.17703" id="e">
   <stop stop-color="#0091e6" offset="0"/>
   <stop stop-color="#012e4a" offset="1"/>
  </linearGradient>
 </defs>
 <g>
  <title>Layer 1</title>
  <path id="svg_1" fill="url(#a)" d="m327.43,919.38c9.57,-45.06 -218,-164 0,-285.73c110.05,-61.36 -157.15,-93 -215.3,96.26c-17.25,56.09 62.44,162.09 111.46,200.09c11.57,8.87 94.3,34.43 103.84,-10.62z" class="a"/>
  <path id="svg_2" fill="url(#b)" d="m902.91,224.06l-75.62,-142.74s5.82,104.41 -30.37,123.9c-136.43,73.49 4.34,205.22 91.08,115.46c4.35,-4.51 4,-13.18 5.22,-19.52a536.07,536.07 0 0 0 9.69,-77.1z" class="b"/>
  <path id="svg_3" fill="url(#c)" d="m276.64,499.42c-84.13,57.42 3.66,155.84 0,101.16c-3.75,-56.15 290.59,-57.63 304.81,-61.21c125.16,-31.55 133.61,98.75 36.42,154.53c-224.57,128.79 -67.18,287.1 79.53,185.91c11.92,-8.21 22.15,-25.7 37.38,-43.36c22.14,-25.7 38.27,-64 57.71,-95c12.47,-20 10.47,-43.75 17,-75.05c46.02,-222.48 0.31,-530.6 -532.85,-166.98z" class="c"/>
  <path id="svg_4" fill="#00a0ff" d="m158.07,486.91c-54.92,18 -130.6,-107.53 -143.78,-56.48c-59.9,231.92 79.29,445.45 217.35,503.88c-101.4,-129.19 38.12,-260.94 142.72,-311.68c120.11,-58.13 207.18,-140.06 230.26,-182.63c34.12,-62.89 -187.62,69.58 -243.62,54.68c-114.07,-30.08 -86.27,-45.99 -202.93,-7.77z" class="d"/>
  <path id="svg_5" fill="url(#d)" d="m407.91,129c-4.79,-1.55 -62.07,10.94 -97.06,20.81c-85.85,23.84 -169.21,76.58 -222.3,146.41c-234.25,301.34 69.74,441.71 304,317.45c86.94,-46.1 319.36,-99 382,-30.62c55.91,61 11.23,193.07 -77.49,296.66c189.94,-160.51 173.55,-524.03 53.09,-570.15c-70.21,-26.9 -223.26,24.88 -226.7,23.73c-163.74,65.62 -176.4,-13.29 -149.83,-144.9c3.09,-15.2 7.49,-50.17 34.29,-59.39z" class="e"/>
  <path id="svg_6" fill="url(#e)" d="m176.81,284.37c-90.68,134 10.67,166.78 346.9,48.8c3.85,-1.34 -147,-54.68 -126.78,-169.31c2.07,-11.86 11.18,-34.86 11.18,-34.86l-0.19,0c1,0 -7.16,-0.8 -45.17,15.44c0,0.09 -133.88,63.02 -185.94,139.93z" class="f"/>
  <path id="svg_7" fill="#79c8fd" d="m888,320.77c20.45,-82.38 -154.64,-151.08 -256.24,-183.45c-261.76,-83.39 46.24,-202.32 176.15,-94c90.19,75.19 118.19,207.57 80.09,277.45z" class="g"/>
  <path id="svg_8" fill="#79c8fd" d="m894.75,306s-3.82,11.95 -6.64,14.54a60.76,60.76 0 0 0 3.36,-13.48c0.36,-5.31 3.28,-1.06 3.28,-1.06z" class="g"/>
 </g>
</svg>