<?xml version="1.0" encoding="utf-8" standalone="no"?>
<!DOCTYPE svg PUBLIC "-//W3C//DTD SVG 1.1//EN"
  "http://www.w3.org/Graphics/SVG/1.1/DTD/svg11.dtd">
<svg height="1152pt" version="1.1" viewBox="0 0 864 1152" width="864pt" xmlns="http://www.w3.org/2000/svg" xmlns:xlink="http://www.w3.org/1999/xlink">
 <metadata>
  <rdf:RDF xmlns:cc="http://creativecommons.org/ns#" xmlns:dc="http://purl.org/dc/elements/1.1/" xmlns:rdf="http://www.w3.org/1999/02/22-rdf-syntax-ns#">
   <cc:Work>
    <dc:type rdf:resource="http://purl.org/dc/dcmitype/StillImage"/>
    <dc:date>2021-10-22T12:02:51.619735</dc:date>
    <dc:format>image/svg+xml</dc:format>
    <dc:creator>
     <cc:Agent>
      <dc:title>Matplotlib v3.4.3, https://matplotlib.org/</dc:title>
     </cc:Agent>
    </dc:creator>
   </cc:Work>
  </rdf:RDF>
 </metadata>
 <defs>
  <style type="text/css">*{stroke-linecap:butt;stroke-linejoin:round;}</style>
 </defs>
 <g id="figure_1">
  <g id="patch_1">
   <path d="M 0 1152 
L 864 1152 
L 864 0 
L 0 0 
z
" style="fill:#ffffff;"/>
  </g>
  <g id="axes_1">
   <g id="patch_2">
    <path d="M 108 1025.28 
L 777.6 1025.28 
L 777.6 138.24 
L 108 138.24 
z
" style="fill:#ffffff;"/>
   </g>
   <g id="matplotlib.axis_1">
    <g id="xtick_1">
     <g id="line2d_1">
      <defs>
       <path d="M 0 0 
L 0 3.5 
" id="m6e22fe20df" style="stroke:#000000;stroke-width:0.8;"/>
      </defs>
      <g>
       <use style="stroke:#000000;stroke-width:0.8;" x="108" xlink:href="#m6e22fe20df" y="1025.28"/>
      </g>
     </g>
     <g id="text_1">
      <!-- 0 -->
      <g transform="translate(104.81875 1039.878438)scale(0.1 -0.1)">
       <defs>
        <path d="M 2034 4250 
Q 1547 4250 1301 3770 
Q 1056 3291 1056 2328 
Q 1056 1369 1301 889 
Q 1547 409 2034 409 
Q 2525 409 2770 889 
Q 3016 1369 3016 2328 
Q 3016 3291 2770 3770 
Q 2525 4250 2034 4250 
z
M 2034 4750 
Q 2819 4750 3233 4129 
Q 3647 3509 3647 2328 
Q 3647 1150 3233 529 
Q 2819 -91 2034 -91 
Q 1250 -91 836 529 
Q 422 1150 422 2328 
Q 422 3509 836 4129 
Q 1250 4750 2034 4750 
z
" id="DejaVuSans-30" transform="scale(0.015625)"/>
       </defs>
       <use xlink:href="#DejaVuSans-30"/>
      </g>
     </g>
    </g>
    <g id="xtick_2">
     <g id="line2d_2">
      <g>
       <use style="stroke:#000000;stroke-width:0.8;" x="219.6" xlink:href="#m6e22fe20df" y="1025.28"/>
      </g>
     </g>
     <g id="text_2">
      <!-- 20 -->
      <g transform="translate(213.2375 1039.878438)scale(0.1 -0.1)">
       <defs>
        <path d="M 1228 531 
L 3431 531 
L 3431 0 
L 469 0 
L 469 531 
Q 828 903 1448 1529 
Q 2069 2156 2228 2338 
Q 2531 2678 2651 2914 
Q 2772 3150 2772 3378 
Q 2772 3750 2511 3984 
Q 2250 4219 1831 4219 
Q 1534 4219 1204 4116 
Q 875 4013 500 3803 
L 500 4441 
Q 881 4594 1212 4672 
Q 1544 4750 1819 4750 
Q 2544 4750 2975 4387 
Q 3406 4025 3406 3419 
Q 3406 3131 3298 2873 
Q 3191 2616 2906 2266 
Q 2828 2175 2409 1742 
Q 1991 1309 1228 531 
z
" id="DejaVuSans-32" transform="scale(0.015625)"/>
       </defs>
       <use xlink:href="#DejaVuSans-32"/>
       <use x="63.623047" xlink:href="#DejaVuSans-30"/>
      </g>
     </g>
    </g>
    <g id="xtick_3">
     <g id="line2d_3">
      <g>
       <use style="stroke:#000000;stroke-width:0.8;" x="331.2" xlink:href="#m6e22fe20df" y="1025.28"/>
      </g>
     </g>
     <g id="text_3">
      <!-- 40 -->
      <g transform="translate(324.8375 1039.878438)scale(0.1 -0.1)">
       <defs>
        <path d="M 2419 4116 
L 825 1625 
L 2419 1625 
L 2419 4116 
z
M 2253 4666 
L 3047 4666 
L 3047 1625 
L 3713 1625 
L 3713 1100 
L 3047 1100 
L 3047 0 
L 2419 0 
L 2419 1100 
L 313 1100 
L 313 1709 
L 2253 4666 
z
" id="DejaVuSans-34" transform="scale(0.015625)"/>
       </defs>
       <use xlink:href="#DejaVuSans-34"/>
       <use x="63.623047" xlink:href="#DejaVuSans-30"/>
      </g>
     </g>
    </g>
    <g id="xtick_4">
     <g id="line2d_4">
      <g>
       <use style="stroke:#000000;stroke-width:0.8;" x="442.8" xlink:href="#m6e22fe20df" y="1025.28"/>
      </g>
     </g>
     <g id="text_4">
      <!-- 60 -->
      <g transform="translate(436.4375 1039.878438)scale(0.1 -0.1)">
       <defs>
        <path d="M 2113 2584 
Q 1688 2584 1439 2293 
Q 1191 2003 1191 1497 
Q 1191 994 1439 701 
Q 1688 409 2113 409 
Q 2538 409 2786 701 
Q 3034 994 3034 1497 
Q 3034 2003 2786 2293 
Q 2538 2584 2113 2584 
z
M 3366 4563 
L 3366 3988 
Q 3128 4100 2886 4159 
Q 2644 4219 2406 4219 
Q 1781 4219 1451 3797 
Q 1122 3375 1075 2522 
Q 1259 2794 1537 2939 
Q 1816 3084 2150 3084 
Q 2853 3084 3261 2657 
Q 3669 2231 3669 1497 
Q 3669 778 3244 343 
Q 2819 -91 2113 -91 
Q 1303 -91 875 529 
Q 447 1150 447 2328 
Q 447 3434 972 4092 
Q 1497 4750 2381 4750 
Q 2619 4750 2861 4703 
Q 3103 4656 3366 4563 
z
" id="DejaVuSans-36" transform="scale(0.015625)"/>
       </defs>
       <use xlink:href="#DejaVuSans-36"/>
       <use x="63.623047" xlink:href="#DejaVuSans-30"/>
      </g>
     </g>
    </g>
    <g id="xtick_5">
     <g id="line2d_5">
      <g>
       <use style="stroke:#000000;stroke-width:0.8;" x="554.4" xlink:href="#m6e22fe20df" y="1025.28"/>
      </g>
     </g>
     <g id="text_5">
      <!-- 80 -->
      <g transform="translate(548.0375 1039.878438)scale(0.1 -0.1)">
       <defs>
        <path d="M 2034 2216 
Q 1584 2216 1326 1975 
Q 1069 1734 1069 1313 
Q 1069 891 1326 650 
Q 1584 409 2034 409 
Q 2484 409 2743 651 
Q 3003 894 3003 1313 
Q 3003 1734 2745 1975 
Q 2488 2216 2034 2216 
z
M 1403 2484 
Q 997 2584 770 2862 
Q 544 3141 544 3541 
Q 544 4100 942 4425 
Q 1341 4750 2034 4750 
Q 2731 4750 3128 4425 
Q 3525 4100 3525 3541 
Q 3525 3141 3298 2862 
Q 3072 2584 2669 2484 
Q 3125 2378 3379 2068 
Q 3634 1759 3634 1313 
Q 3634 634 3220 271 
Q 2806 -91 2034 -91 
Q 1263 -91 848 271 
Q 434 634 434 1313 
Q 434 1759 690 2068 
Q 947 2378 1403 2484 
z
M 1172 3481 
Q 1172 3119 1398 2916 
Q 1625 2713 2034 2713 
Q 2441 2713 2670 2916 
Q 2900 3119 2900 3481 
Q 2900 3844 2670 4047 
Q 2441 4250 2034 4250 
Q 1625 4250 1398 4047 
Q 1172 3844 1172 3481 
z
" id="DejaVuSans-38" transform="scale(0.015625)"/>
       </defs>
       <use xlink:href="#DejaVuSans-38"/>
       <use x="63.623047" xlink:href="#DejaVuSans-30"/>
      </g>
     </g>
    </g>
    <g id="xtick_6">
     <g id="line2d_6">
      <g>
       <use style="stroke:#000000;stroke-width:0.8;" x="666" xlink:href="#m6e22fe20df" y="1025.28"/>
      </g>
     </g>
     <g id="text_6">
      <!-- 100 -->
      <g transform="translate(656.45625 1039.878438)scale(0.1 -0.1)">
       <defs>
        <path d="M 794 531 
L 1825 531 
L 1825 4091 
L 703 3866 
L 703 4441 
L 1819 4666 
L 2450 4666 
L 2450 531 
L 3481 531 
L 3481 0 
L 794 0 
L 794 531 
z
" id="DejaVuSans-31" transform="scale(0.015625)"/>
       </defs>
       <use xlink:href="#DejaVuSans-31"/>
       <use x="63.623047" xlink:href="#DejaVuSans-30"/>
       <use x="127.246094" xlink:href="#DejaVuSans-30"/>
      </g>
     </g>
    </g>
    <g id="xtick_7">
     <g id="line2d_7">
      <g>
       <use style="stroke:#000000;stroke-width:0.8;" x="777.6" xlink:href="#m6e22fe20df" y="1025.28"/>
      </g>
     </g>
     <g id="text_7">
      <!-- 120 -->
      <g transform="translate(768.05625 1039.878438)scale(0.1 -0.1)">
       <use xlink:href="#DejaVuSans-31"/>
       <use x="63.623047" xlink:href="#DejaVuSans-32"/>
       <use x="127.246094" xlink:href="#DejaVuSans-30"/>
      </g>
     </g>
    </g>
   </g>
   <g id="matplotlib.axis_2">
    <g id="ytick_1">
     <g id="line2d_8">
      <defs>
       <path d="M 0 0 
L -3.5 0 
" id="m5e90692910" style="stroke:#000000;stroke-width:0.8;"/>
      </defs>
      <g>
       <use style="stroke:#000000;stroke-width:0.8;" x="108" xlink:href="#m5e90692910" y="1025.28"/>
      </g>
     </g>
     <g id="text_8">
      <!-- −70 -->
      <g transform="translate(79.895313 1029.079219)scale(0.1 -0.1)">
       <defs>
        <path d="M 678 2272 
L 4684 2272 
L 4684 1741 
L 678 1741 
L 678 2272 
z
" id="DejaVuSans-2212" transform="scale(0.015625)"/>
        <path d="M 525 4666 
L 3525 4666 
L 3525 4397 
L 1831 0 
L 1172 0 
L 2766 4134 
L 525 4134 
L 525 4666 
z
" id="DejaVuSans-37" transform="scale(0.015625)"/>
       </defs>
       <use xlink:href="#DejaVuSans-2212"/>
       <use x="83.789062" xlink:href="#DejaVuSans-37"/>
       <use x="147.412109" xlink:href="#DejaVuSans-30"/>
      </g>
     </g>
    </g>
    <g id="ytick_2">
     <g id="line2d_9">
      <g>
       <use style="stroke:#000000;stroke-width:0.8;" x="108" xlink:href="#m5e90692910" y="898.56"/>
      </g>
     </g>
     <g id="text_9">
      <!-- −60 -->
      <g transform="translate(79.895313 902.359219)scale(0.1 -0.1)">
       <use xlink:href="#DejaVuSans-2212"/>
       <use x="83.789062" xlink:href="#DejaVuSans-36"/>
       <use x="147.412109" xlink:href="#DejaVuSans-30"/>
      </g>
     </g>
    </g>
    <g id="ytick_3">
     <g id="line2d_10">
      <g>
       <use style="stroke:#000000;stroke-width:0.8;" x="108" xlink:href="#m5e90692910" y="771.84"/>
      </g>
     </g>
     <g id="text_10">
      <!-- −50 -->
      <g transform="translate(79.895313 775.639219)scale(0.1 -0.1)">
       <defs>
        <path d="M 691 4666 
L 3169 4666 
L 3169 4134 
L 1269 4134 
L 1269 2991 
Q 1406 3038 1543 3061 
Q 1681 3084 1819 3084 
Q 2600 3084 3056 2656 
Q 3513 2228 3513 1497 
Q 3513 744 3044 326 
Q 2575 -91 1722 -91 
Q 1428 -91 1123 -41 
Q 819 9 494 109 
L 494 744 
Q 775 591 1075 516 
Q 1375 441 1709 441 
Q 2250 441 2565 725 
Q 2881 1009 2881 1497 
Q 2881 1984 2565 2268 
Q 2250 2553 1709 2553 
Q 1456 2553 1204 2497 
Q 953 2441 691 2322 
L 691 4666 
z
" id="DejaVuSans-35" transform="scale(0.015625)"/>
       </defs>
       <use xlink:href="#DejaVuSans-2212"/>
       <use x="83.789062" xlink:href="#DejaVuSans-35"/>
       <use x="147.412109" xlink:href="#DejaVuSans-30"/>
      </g>
     </g>
    </g>
    <g id="ytick_4">
     <g id="line2d_11">
      <g>
       <use style="stroke:#000000;stroke-width:0.8;" x="108" xlink:href="#m5e90692910" y="645.12"/>
      </g>
     </g>
     <g id="text_11">
      <!-- −40 -->
      <g transform="translate(79.895313 648.919219)scale(0.1 -0.1)">
       <use xlink:href="#DejaVuSans-2212"/>
       <use x="83.789062" xlink:href="#DejaVuSans-34"/>
       <use x="147.412109" xlink:href="#DejaVuSans-30"/>
      </g>
     </g>
    </g>
    <g id="ytick_5">
     <g id="line2d_12">
      <g>
       <use style="stroke:#000000;stroke-width:0.8;" x="108" xlink:href="#m5e90692910" y="518.4"/>
      </g>
     </g>
     <g id="text_12">
      <!-- −30 -->
      <g transform="translate(79.895313 522.199219)scale(0.1 -0.1)">
       <defs>
        <path d="M 2597 2516 
Q 3050 2419 3304 2112 
Q 3559 1806 3559 1356 
Q 3559 666 3084 287 
Q 2609 -91 1734 -91 
Q 1441 -91 1130 -33 
Q 819 25 488 141 
L 488 750 
Q 750 597 1062 519 
Q 1375 441 1716 441 
Q 2309 441 2620 675 
Q 2931 909 2931 1356 
Q 2931 1769 2642 2001 
Q 2353 2234 1838 2234 
L 1294 2234 
L 1294 2753 
L 1863 2753 
Q 2328 2753 2575 2939 
Q 2822 3125 2822 3475 
Q 2822 3834 2567 4026 
Q 2313 4219 1838 4219 
Q 1578 4219 1281 4162 
Q 984 4106 628 3988 
L 628 4550 
Q 988 4650 1302 4700 
Q 1616 4750 1894 4750 
Q 2613 4750 3031 4423 
Q 3450 4097 3450 3541 
Q 3450 3153 3228 2886 
Q 3006 2619 2597 2516 
z
" id="DejaVuSans-33" transform="scale(0.015625)"/>
       </defs>
       <use xlink:href="#DejaVuSans-2212"/>
       <use x="83.789062" xlink:href="#DejaVuSans-33"/>
       <use x="147.412109" xlink:href="#DejaVuSans-30"/>
      </g>
     </g>
    </g>
    <g id="ytick_6">
     <g id="line2d_13">
      <g>
       <use style="stroke:#000000;stroke-width:0.8;" x="108" xlink:href="#m5e90692910" y="391.68"/>
      </g>
     </g>
     <g id="text_13">
      <!-- −20 -->
      <g transform="translate(79.895313 395.479219)scale(0.1 -0.1)">
       <use xlink:href="#DejaVuSans-2212"/>
       <use x="83.789062" xlink:href="#DejaVuSans-32"/>
       <use x="147.412109" xlink:href="#DejaVuSans-30"/>
      </g>
     </g>
    </g>
    <g id="ytick_7">
     <g id="line2d_14">
      <g>
       <use style="stroke:#000000;stroke-width:0.8;" x="108" xlink:href="#m5e90692910" y="264.96"/>
      </g>
     </g>
     <g id="text_14">
      <!-- −10 -->
      <g transform="translate(79.895313 268.759219)scale(0.1 -0.1)">
       <use xlink:href="#DejaVuSans-2212"/>
       <use x="83.789062" xlink:href="#DejaVuSans-31"/>
       <use x="147.412109" xlink:href="#DejaVuSans-30"/>
      </g>
     </g>
    </g>
    <g id="ytick_8">
     <g id="line2d_15">
      <g>
       <use style="stroke:#000000;stroke-width:0.8;" x="108" xlink:href="#m5e90692910" y="138.24"/>
      </g>
     </g>
     <g id="text_15">
      <!-- 0 -->
      <g transform="translate(94.6375 142.039219)scale(0.1 -0.1)">
       <use xlink:href="#DejaVuSans-30"/>
      </g>
     </g>
    </g>
   </g>
   <g id="line2d_16">
    <path clip-path="url(#pc6d2075027)" d="M 108 1017.333204 
L 113.58 1015.052781 
L 119.16 1010.095577 
L 124.74 1001.734203 
L 130.32 989.031188 
L 135.9 970.997605 
L 141.48 946.765973 
L 147.06 915.752115 
L 152.64 877.782583 
L 158.22 833.169713 
L 163.8 782.724434 
L 169.38 727.706381 
L 180.54 610.574138 
L 186.12 552.123669 
L 191.7 496.120807 
L 197.28 444.091878 
L 202.86 397.257485 
L 208.44 356.502327 
L 214.02 322.393253 
L 219.6 295.235688 
L 225.18 275.152228 
L 230.76 262.163778 
L 236.34 256.253846 
L 241.92 257.400387 
L 247.5 265.566334 
L 253.08 280.648582 
L 258.66 302.394174 
L 264.24 330.300259 
L 269.82 363.519594 
L 275.4 400.79494 
L 286.56 480.403545 
L 292.14 518.354874 
L 297.72 551.895592 
L 303.3 578.769077 
L 308.88 597.107719 
L 314.46 605.663208 
L 320.04 603.989281 
L 325.62 592.547003 
L 331.2 572.71114 
L 336.78 546.668555 
L 347.94 487.46251 
L 353.52 460.512492 
L 359.1 439.09731 
L 364.68 425.272425 
L 370.26 420.177549 
L 375.84 423.907087 
L 381.42 435.508084 
L 387 453.108544 
L 392.58 474.161729 
L 398.16 495.776328 
L 403.74 515.090493 
L 409.32 529.641299 
L 414.9 537.681282 
L 420.48 538.400358 
L 426.06 532.023811 
L 431.64 519.77351 
L 437.22 503.697795 
L 442.8 486.393116 
L 448.38 470.65499 
L 453.96 459.105247 
L 459.54 453.845476 
L 465.12 456.182765 
L 470.7 466.463692 
L 476.28 484.037582 
L 481.86 507.352376 
L 487.44 534.168492 
L 493.02 561.860329 
L 498.6 587.763709 
L 504.18 609.522062 
L 509.76 625.385279 
L 515.34 634.422518 
L 520.92 636.622838 
L 526.5 632.873383 
L 532.08 624.821747 
L 537.66 614.644683 
L 543.24 604.757329 
L 548.82 597.504054 
L 554.4 594.87298 
L 559.98 598.271287 
L 565.56 608.388411 
L 571.14 625.160848 
L 576.72 647.837377 
L 582.3 675.129498 
L 587.88 705.420572 
L 599.04 768.288628 
L 604.62 798.019519 
L 610.2 825.357363 
L 615.78 849.937181 
L 621.36 871.826651 
L 626.94 891.422829 
L 632.52 909.305219 
L 638.1 926.07273 
L 643.68 942.193266 
L 649.26 957.891308 
L 654.84 973.091479 
L 660.42 987.426081 
L 666 1000.303525 
L 671.58 1011.024331 
L 677.16 1018.923457 
L 682.74 1023.5135 
L 688.32 1024.603233 
L 693.9 1022.370186 
L 699.48 1017.373579 
L 705.06 1010.503832 
L 710.64 1002.875328 
L 716.22 995.678549 
L 721.8 990.014516 
L 727.38 986.737646 
L 732.96 986.332102 
L 738.54 988.841706 
L 744.12 993.865213 
L 749.7 1000.61858 
L 755.28 1008.055363 
L 760.86 1015.027211 
L 766.44 1020.460069 
L 772.02 1023.519064 
L 777.6 1023.736719 
L 783.18 1021.084654 
L 788.76 1015.977659 
L 794.34 1009.209423 
L 799.92 1001.829784 
L 805.5 994.982417 
L 811.08 989.728027 
L 816.66 986.880351 
L 816.66 986.880351 
" style="fill:none;stroke:#1f77b4;stroke-linecap:square;stroke-width:1.5;"/>
   </g>
   <g id="line2d_17">
    <path clip-path="url(#pc6d2075027)" d="M 108 787.113476 
L 113.58 1005.215164 
L 158.22 1005.215164 
L 163.8 942.7852 
L 169.38 850.219926 
L 174.96 527.489094 
L 180.54 389.438739 
L 186.12 395.25257 
L 191.7 198.524415 
L 197.28 148.968376 
L 202.86 234.766811 
L 208.44 555.149543 
L 214.02 712.098547 
L 219.6 684.244967 
L 225.18 447.097004 
L 230.76 220.709929 
L 236.34 157.677957 
L 241.92 138.24 
L 247.5 201.626363 
L 253.08 352.458602 
L 258.66 176.781993 
L 264.24 148.074046 
L 269.82 266.798234 
L 275.4 619.699283 
L 280.98 549.354086 
L 286.56 298.603321 
L 292.14 266.186053 
L 297.72 459.021548 
L 303.3 730.834905 
L 308.88 874.710084 
L 314.46 958.01579 
L 320.04 902.191178 
L 325.62 415.993293 
L 331.2 262.744502 
L 336.78 302.814413 
L 342.36 668.220184 
L 347.94 369.016242 
L 353.52 366.575652 
L 359.1 285.17771 
L 364.68 319.076348 
L 370.26 780.526432 
L 375.84 541.674948 
L 381.42 246.661596 
L 387 299.438062 
L 392.58 713.858598 
L 398.16 975.484114 
L 403.74 612.906059 
L 409.32 319.686996 
L 414.9 353.643199 
L 420.48 413.276737 
L 426.06 405.389147 
L 431.64 276.645815 
L 437.22 419.261363 
L 442.8 795.824334 
L 448.38 450.358795 
L 453.96 478.122374 
L 459.54 743.024575 
L 465.12 611.159358 
L 470.7 316.320625 
L 476.28 383.700051 
L 481.86 313.592022 
L 487.44 448.681761 
L 493.02 1005.215164 
L 498.6 607.513146 
L 504.18 464.906396 
L 509.76 408.139264 
L 515.34 525.377808 
L 520.92 648.310444 
L 526.5 784.925232 
L 532.08 790.11932 
L 537.66 585.134845 
L 543.24 480.861441 
L 548.82 583.717868 
L 554.4 544.526982 
L 559.98 791.627312 
L 565.56 609.382937 
L 571.14 566.597469 
L 576.72 659.018601 
L 582.3 661.849786 
L 587.88 774.239264 
L 593.46 683.119025 
L 599.04 731.532087 
L 604.62 692.054186 
L 610.2 870.856084 
L 615.78 858.765359 
L 621.36 878.255085 
L 626.94 894.351713 
L 632.52 875.077679 
L 638.1 1005.215164 
L 643.68 987.901608 
L 649.26 932.457142 
L 654.84 1005.215164 
L 660.42 966.572081 
L 666 1005.215164 
L 816.66 1005.215164 
L 816.66 1005.215164 
" style="fill:none;stroke:#ff7f0e;stroke-linecap:square;stroke-width:1.5;"/>
   </g>
   <g id="patch_3">
    <path d="M 108 1025.28 
L 108 138.24 
" style="fill:none;stroke:#000000;stroke-linecap:square;stroke-linejoin:miter;stroke-width:0.8;"/>
   </g>
   <g id="patch_4">
    <path d="M 777.6 1025.28 
L 777.6 138.24 
" style="fill:none;stroke:#000000;stroke-linecap:square;stroke-linejoin:miter;stroke-width:0.8;"/>
   </g>
   <g id="patch_5">
    <path d="M 108 1025.28 
L 777.6 1025.28 
" style="fill:none;stroke:#000000;stroke-linecap:square;stroke-linejoin:miter;stroke-width:0.8;"/>
   </g>
   <g id="patch_6">
    <path d="M 108 138.24 
L 777.6 138.24 
" style="fill:none;stroke:#000000;stroke-linecap:square;stroke-linejoin:miter;stroke-width:0.8;"/>
   </g>
  </g>
 </g>
 <defs>
  <clipPath id="pc6d2075027">
   <rect height="887.04" width="669.6" x="108" y="138.24"/>
  </clipPath>
 </defs>
</svg>
