<?xml version="1.0" encoding="utf-8" standalone="no"?>
<!DOCTYPE svg PUBLIC "-//W3C//DTD SVG 1.1//EN"
  "http://www.w3.org/Graphics/SVG/1.1/DTD/svg11.dtd">
<svg height="1152pt" version="1.1" viewBox="0 0 864 1152" width="864pt" xmlns="http://www.w3.org/2000/svg" xmlns:xlink="http://www.w3.org/1999/xlink">
 <metadata>
  <rdf:RDF xmlns:cc="http://creativecommons.org/ns#" xmlns:dc="http://purl.org/dc/elements/1.1/" xmlns:rdf="http://www.w3.org/1999/02/22-rdf-syntax-ns#">
   <cc:Work>
    <dc:type rdf:resource="http://purl.org/dc/dcmitype/StillImage"/>
    <dc:date>2021-10-22T12:02:47.391658</dc:date>
    <dc:format>image/svg+xml</dc:format>
    <dc:creator>
     <cc:Agent>
      <dc:title>Matplotlib v3.4.3, https://matplotlib.org/</dc:title>
     </cc:Agent>
    </dc:creator>
   </cc:Work>
  </rdf:RDF>
 </metadata>
 <defs>
  <style type="text/css">*{stroke-linecap:butt;stroke-linejoin:round;}</style>
 </defs>
 <g id="figure_1">
  <g id="patch_1">
   <path d="M 0 1152 
L 864 1152 
L 864 0 
L 0 0 
z
" style="fill:#ffffff;"/>
  </g>
  <g id="axes_1">
   <g id="patch_2">
    <path d="M 108 1025.28 
L 777.6 1025.28 
L 777.6 138.24 
L 108 138.24 
z
" style="fill:#ffffff;"/>
   </g>
   <g id="matplotlib.axis_1">
    <g id="xtick_1">
     <g id="line2d_1">
      <defs>
       <path d="M 0 0 
L 0 3.5 
" id="m9686a00e96" style="stroke:#000000;stroke-width:0.8;"/>
      </defs>
      <g>
       <use style="stroke:#000000;stroke-width:0.8;" x="108" xlink:href="#m9686a00e96" y="1025.28"/>
      </g>
     </g>
     <g id="text_1">
      <!-- 0 -->
      <g transform="translate(104.81875 1039.878438)scale(0.1 -0.1)">
       <defs>
        <path d="M 2034 4250 
Q 1547 4250 1301 3770 
Q 1056 3291 1056 2328 
Q 1056 1369 1301 889 
Q 1547 409 2034 409 
Q 2525 409 2770 889 
Q 3016 1369 3016 2328 
Q 3016 3291 2770 3770 
Q 2525 4250 2034 4250 
z
M 2034 4750 
Q 2819 4750 3233 4129 
Q 3647 3509 3647 2328 
Q 3647 1150 3233 529 
Q 2819 -91 2034 -91 
Q 1250 -91 836 529 
Q 422 1150 422 2328 
Q 422 3509 836 4129 
Q 1250 4750 2034 4750 
z
" id="DejaVuSans-30" transform="scale(0.015625)"/>
       </defs>
       <use xlink:href="#DejaVuSans-30"/>
      </g>
     </g>
    </g>
    <g id="xtick_2">
     <g id="line2d_2">
      <g>
       <use style="stroke:#000000;stroke-width:0.8;" x="219.6" xlink:href="#m9686a00e96" y="1025.28"/>
      </g>
     </g>
     <g id="text_2">
      <!-- 20 -->
      <g transform="translate(213.2375 1039.878438)scale(0.1 -0.1)">
       <defs>
        <path d="M 1228 531 
L 3431 531 
L 3431 0 
L 469 0 
L 469 531 
Q 828 903 1448 1529 
Q 2069 2156 2228 2338 
Q 2531 2678 2651 2914 
Q 2772 3150 2772 3378 
Q 2772 3750 2511 3984 
Q 2250 4219 1831 4219 
Q 1534 4219 1204 4116 
Q 875 4013 500 3803 
L 500 4441 
Q 881 4594 1212 4672 
Q 1544 4750 1819 4750 
Q 2544 4750 2975 4387 
Q 3406 4025 3406 3419 
Q 3406 3131 3298 2873 
Q 3191 2616 2906 2266 
Q 2828 2175 2409 1742 
Q 1991 1309 1228 531 
z
" id="DejaVuSans-32" transform="scale(0.015625)"/>
       </defs>
       <use xlink:href="#DejaVuSans-32"/>
       <use x="63.623047" xlink:href="#DejaVuSans-30"/>
      </g>
     </g>
    </g>
    <g id="xtick_3">
     <g id="line2d_3">
      <g>
       <use style="stroke:#000000;stroke-width:0.8;" x="331.2" xlink:href="#m9686a00e96" y="1025.28"/>
      </g>
     </g>
     <g id="text_3">
      <!-- 40 -->
      <g transform="translate(324.8375 1039.878438)scale(0.1 -0.1)">
       <defs>
        <path d="M 2419 4116 
L 825 1625 
L 2419 1625 
L 2419 4116 
z
M 2253 4666 
L 3047 4666 
L 3047 1625 
L 3713 1625 
L 3713 1100 
L 3047 1100 
L 3047 0 
L 2419 0 
L 2419 1100 
L 313 1100 
L 313 1709 
L 2253 4666 
z
" id="DejaVuSans-34" transform="scale(0.015625)"/>
       </defs>
       <use xlink:href="#DejaVuSans-34"/>
       <use x="63.623047" xlink:href="#DejaVuSans-30"/>
      </g>
     </g>
    </g>
    <g id="xtick_4">
     <g id="line2d_4">
      <g>
       <use style="stroke:#000000;stroke-width:0.8;" x="442.8" xlink:href="#m9686a00e96" y="1025.28"/>
      </g>
     </g>
     <g id="text_4">
      <!-- 60 -->
      <g transform="translate(436.4375 1039.878438)scale(0.1 -0.1)">
       <defs>
        <path d="M 2113 2584 
Q 1688 2584 1439 2293 
Q 1191 2003 1191 1497 
Q 1191 994 1439 701 
Q 1688 409 2113 409 
Q 2538 409 2786 701 
Q 3034 994 3034 1497 
Q 3034 2003 2786 2293 
Q 2538 2584 2113 2584 
z
M 3366 4563 
L 3366 3988 
Q 3128 4100 2886 4159 
Q 2644 4219 2406 4219 
Q 1781 4219 1451 3797 
Q 1122 3375 1075 2522 
Q 1259 2794 1537 2939 
Q 1816 3084 2150 3084 
Q 2853 3084 3261 2657 
Q 3669 2231 3669 1497 
Q 3669 778 3244 343 
Q 2819 -91 2113 -91 
Q 1303 -91 875 529 
Q 447 1150 447 2328 
Q 447 3434 972 4092 
Q 1497 4750 2381 4750 
Q 2619 4750 2861 4703 
Q 3103 4656 3366 4563 
z
" id="DejaVuSans-36" transform="scale(0.015625)"/>
       </defs>
       <use xlink:href="#DejaVuSans-36"/>
       <use x="63.623047" xlink:href="#DejaVuSans-30"/>
      </g>
     </g>
    </g>
    <g id="xtick_5">
     <g id="line2d_5">
      <g>
       <use style="stroke:#000000;stroke-width:0.8;" x="554.4" xlink:href="#m9686a00e96" y="1025.28"/>
      </g>
     </g>
     <g id="text_5">
      <!-- 80 -->
      <g transform="translate(548.0375 1039.878438)scale(0.1 -0.1)">
       <defs>
        <path d="M 2034 2216 
Q 1584 2216 1326 1975 
Q 1069 1734 1069 1313 
Q 1069 891 1326 650 
Q 1584 409 2034 409 
Q 2484 409 2743 651 
Q 3003 894 3003 1313 
Q 3003 1734 2745 1975 
Q 2488 2216 2034 2216 
z
M 1403 2484 
Q 997 2584 770 2862 
Q 544 3141 544 3541 
Q 544 4100 942 4425 
Q 1341 4750 2034 4750 
Q 2731 4750 3128 4425 
Q 3525 4100 3525 3541 
Q 3525 3141 3298 2862 
Q 3072 2584 2669 2484 
Q 3125 2378 3379 2068 
Q 3634 1759 3634 1313 
Q 3634 634 3220 271 
Q 2806 -91 2034 -91 
Q 1263 -91 848 271 
Q 434 634 434 1313 
Q 434 1759 690 2068 
Q 947 2378 1403 2484 
z
M 1172 3481 
Q 1172 3119 1398 2916 
Q 1625 2713 2034 2713 
Q 2441 2713 2670 2916 
Q 2900 3119 2900 3481 
Q 2900 3844 2670 4047 
Q 2441 4250 2034 4250 
Q 1625 4250 1398 4047 
Q 1172 3844 1172 3481 
z
" id="DejaVuSans-38" transform="scale(0.015625)"/>
       </defs>
       <use xlink:href="#DejaVuSans-38"/>
       <use x="63.623047" xlink:href="#DejaVuSans-30"/>
      </g>
     </g>
    </g>
    <g id="xtick_6">
     <g id="line2d_6">
      <g>
       <use style="stroke:#000000;stroke-width:0.8;" x="666" xlink:href="#m9686a00e96" y="1025.28"/>
      </g>
     </g>
     <g id="text_6">
      <!-- 100 -->
      <g transform="translate(656.45625 1039.878438)scale(0.1 -0.1)">
       <defs>
        <path d="M 794 531 
L 1825 531 
L 1825 4091 
L 703 3866 
L 703 4441 
L 1819 4666 
L 2450 4666 
L 2450 531 
L 3481 531 
L 3481 0 
L 794 0 
L 794 531 
z
" id="DejaVuSans-31" transform="scale(0.015625)"/>
       </defs>
       <use xlink:href="#DejaVuSans-31"/>
       <use x="63.623047" xlink:href="#DejaVuSans-30"/>
       <use x="127.246094" xlink:href="#DejaVuSans-30"/>
      </g>
     </g>
    </g>
    <g id="xtick_7">
     <g id="line2d_7">
      <g>
       <use style="stroke:#000000;stroke-width:0.8;" x="777.6" xlink:href="#m9686a00e96" y="1025.28"/>
      </g>
     </g>
     <g id="text_7">
      <!-- 120 -->
      <g transform="translate(768.05625 1039.878438)scale(0.1 -0.1)">
       <use xlink:href="#DejaVuSans-31"/>
       <use x="63.623047" xlink:href="#DejaVuSans-32"/>
       <use x="127.246094" xlink:href="#DejaVuSans-30"/>
      </g>
     </g>
    </g>
   </g>
   <g id="matplotlib.axis_2">
    <g id="ytick_1">
     <g id="line2d_8">
      <defs>
       <path d="M 0 0 
L -3.5 0 
" id="m2a7af7ec75" style="stroke:#000000;stroke-width:0.8;"/>
      </defs>
      <g>
       <use style="stroke:#000000;stroke-width:0.8;" x="108" xlink:href="#m2a7af7ec75" y="1025.28"/>
      </g>
     </g>
     <g id="text_8">
      <!-- −70 -->
      <g transform="translate(79.895313 1029.079219)scale(0.1 -0.1)">
       <defs>
        <path d="M 678 2272 
L 4684 2272 
L 4684 1741 
L 678 1741 
L 678 2272 
z
" id="DejaVuSans-2212" transform="scale(0.015625)"/>
        <path d="M 525 4666 
L 3525 4666 
L 3525 4397 
L 1831 0 
L 1172 0 
L 2766 4134 
L 525 4134 
L 525 4666 
z
" id="DejaVuSans-37" transform="scale(0.015625)"/>
       </defs>
       <use xlink:href="#DejaVuSans-2212"/>
       <use x="83.789062" xlink:href="#DejaVuSans-37"/>
       <use x="147.412109" xlink:href="#DejaVuSans-30"/>
      </g>
     </g>
    </g>
    <g id="ytick_2">
     <g id="line2d_9">
      <g>
       <use style="stroke:#000000;stroke-width:0.8;" x="108" xlink:href="#m2a7af7ec75" y="898.56"/>
      </g>
     </g>
     <g id="text_9">
      <!-- −60 -->
      <g transform="translate(79.895313 902.359219)scale(0.1 -0.1)">
       <use xlink:href="#DejaVuSans-2212"/>
       <use x="83.789062" xlink:href="#DejaVuSans-36"/>
       <use x="147.412109" xlink:href="#DejaVuSans-30"/>
      </g>
     </g>
    </g>
    <g id="ytick_3">
     <g id="line2d_10">
      <g>
       <use style="stroke:#000000;stroke-width:0.8;" x="108" xlink:href="#m2a7af7ec75" y="771.84"/>
      </g>
     </g>
     <g id="text_10">
      <!-- −50 -->
      <g transform="translate(79.895313 775.639219)scale(0.1 -0.1)">
       <defs>
        <path d="M 691 4666 
L 3169 4666 
L 3169 4134 
L 1269 4134 
L 1269 2991 
Q 1406 3038 1543 3061 
Q 1681 3084 1819 3084 
Q 2600 3084 3056 2656 
Q 3513 2228 3513 1497 
Q 3513 744 3044 326 
Q 2575 -91 1722 -91 
Q 1428 -91 1123 -41 
Q 819 9 494 109 
L 494 744 
Q 775 591 1075 516 
Q 1375 441 1709 441 
Q 2250 441 2565 725 
Q 2881 1009 2881 1497 
Q 2881 1984 2565 2268 
Q 2250 2553 1709 2553 
Q 1456 2553 1204 2497 
Q 953 2441 691 2322 
L 691 4666 
z
" id="DejaVuSans-35" transform="scale(0.015625)"/>
       </defs>
       <use xlink:href="#DejaVuSans-2212"/>
       <use x="83.789062" xlink:href="#DejaVuSans-35"/>
       <use x="147.412109" xlink:href="#DejaVuSans-30"/>
      </g>
     </g>
    </g>
    <g id="ytick_4">
     <g id="line2d_11">
      <g>
       <use style="stroke:#000000;stroke-width:0.8;" x="108" xlink:href="#m2a7af7ec75" y="645.12"/>
      </g>
     </g>
     <g id="text_11">
      <!-- −40 -->
      <g transform="translate(79.895313 648.919219)scale(0.1 -0.1)">
       <use xlink:href="#DejaVuSans-2212"/>
       <use x="83.789062" xlink:href="#DejaVuSans-34"/>
       <use x="147.412109" xlink:href="#DejaVuSans-30"/>
      </g>
     </g>
    </g>
    <g id="ytick_5">
     <g id="line2d_12">
      <g>
       <use style="stroke:#000000;stroke-width:0.8;" x="108" xlink:href="#m2a7af7ec75" y="518.4"/>
      </g>
     </g>
     <g id="text_12">
      <!-- −30 -->
      <g transform="translate(79.895313 522.199219)scale(0.1 -0.1)">
       <defs>
        <path d="M 2597 2516 
Q 3050 2419 3304 2112 
Q 3559 1806 3559 1356 
Q 3559 666 3084 287 
Q 2609 -91 1734 -91 
Q 1441 -91 1130 -33 
Q 819 25 488 141 
L 488 750 
Q 750 597 1062 519 
Q 1375 441 1716 441 
Q 2309 441 2620 675 
Q 2931 909 2931 1356 
Q 2931 1769 2642 2001 
Q 2353 2234 1838 2234 
L 1294 2234 
L 1294 2753 
L 1863 2753 
Q 2328 2753 2575 2939 
Q 2822 3125 2822 3475 
Q 2822 3834 2567 4026 
Q 2313 4219 1838 4219 
Q 1578 4219 1281 4162 
Q 984 4106 628 3988 
L 628 4550 
Q 988 4650 1302 4700 
Q 1616 4750 1894 4750 
Q 2613 4750 3031 4423 
Q 3450 4097 3450 3541 
Q 3450 3153 3228 2886 
Q 3006 2619 2597 2516 
z
" id="DejaVuSans-33" transform="scale(0.015625)"/>
       </defs>
       <use xlink:href="#DejaVuSans-2212"/>
       <use x="83.789062" xlink:href="#DejaVuSans-33"/>
       <use x="147.412109" xlink:href="#DejaVuSans-30"/>
      </g>
     </g>
    </g>
    <g id="ytick_6">
     <g id="line2d_13">
      <g>
       <use style="stroke:#000000;stroke-width:0.8;" x="108" xlink:href="#m2a7af7ec75" y="391.68"/>
      </g>
     </g>
     <g id="text_13">
      <!-- −20 -->
      <g transform="translate(79.895313 395.479219)scale(0.1 -0.1)">
       <use xlink:href="#DejaVuSans-2212"/>
       <use x="83.789062" xlink:href="#DejaVuSans-32"/>
       <use x="147.412109" xlink:href="#DejaVuSans-30"/>
      </g>
     </g>
    </g>
    <g id="ytick_7">
     <g id="line2d_14">
      <g>
       <use style="stroke:#000000;stroke-width:0.8;" x="108" xlink:href="#m2a7af7ec75" y="264.96"/>
      </g>
     </g>
     <g id="text_14">
      <!-- −10 -->
      <g transform="translate(79.895313 268.759219)scale(0.1 -0.1)">
       <use xlink:href="#DejaVuSans-2212"/>
       <use x="83.789062" xlink:href="#DejaVuSans-31"/>
       <use x="147.412109" xlink:href="#DejaVuSans-30"/>
      </g>
     </g>
    </g>
    <g id="ytick_8">
     <g id="line2d_15">
      <g>
       <use style="stroke:#000000;stroke-width:0.8;" x="108" xlink:href="#m2a7af7ec75" y="138.24"/>
      </g>
     </g>
     <g id="text_15">
      <!-- 0 -->
      <g transform="translate(94.6375 142.039219)scale(0.1 -0.1)">
       <use xlink:href="#DejaVuSans-30"/>
      </g>
     </g>
    </g>
   </g>
   <g id="line2d_16">
    <path clip-path="url(#p41c1e8db63)" d="M 108 1095.158447 
L 113.58 1086.701249 
L 119.16 1069.986344 
L 124.74 1045.407043 
L 130.32 1013.539312 
L 135.9 975.12546 
L 141.48 931.053203 
L 147.06 882.330737 
L 152.64 830.058626 
L 158.22 775.399342 
L 169.38 663.687241 
L 174.96 608.981254 
L 180.54 556.519884 
L 186.12 507.303727 
L 191.7 462.216999 
L 197.28 422.006903 
L 202.86 387.26745 
L 208.44 358.428172 
L 214.02 335.747946 
L 219.6 319.314037 
L 225.18 309.046243 
L 230.76 304.70591 
L 236.34 305.909403 
L 241.92 312.145498 
L 247.5 322.796035 
L 253.08 337.159093 
L 258.66 354.473868 
L 264.24 373.946413 
L 269.82 394.775382 
L 280.98 437.408107 
L 286.56 457.787681 
L 292.14 476.714379 
L 297.72 493.681446 
L 303.3 508.287541 
L 308.88 520.243602 
L 314.46 529.375638 
L 320.04 535.623506 
L 325.62 539.035872 
L 331.2 539.761691 
L 336.78 538.038645 
L 342.36 534.179069 
L 347.94 528.553968 
L 353.52 521.575782 
L 359.1 513.680575 
L 370.26 496.895859 
L 375.84 488.841375 
L 381.42 481.510485 
L 387 475.214818 
L 392.58 470.20516 
L 398.16 466.665474 
L 403.74 464.709905 
L 409.32 464.38275 
L 414.9 465.661289 
L 420.48 468.461235 
L 426.06 472.644494 
L 431.64 478.028835 
L 437.22 484.398995 
L 442.8 491.518736 
L 448.38 499.143309 
L 465.12 522.725304 
L 470.7 530.167325 
L 476.28 537.163668 
L 481.86 543.640857 
L 487.44 549.576072 
L 493.02 554.997704 
L 498.6 559.983569 
L 504.18 564.65694 
L 515.34 573.748968 
L 520.92 578.579416 
L 526.5 583.901862 
L 532.08 589.948394 
L 537.66 596.942553 
L 543.24 605.089018 
L 548.82 614.564035 
L 554.4 625.506998 
L 559.98 638.01351 
L 565.56 652.13018 
L 571.14 667.851357 
L 576.72 685.117916 
L 582.3 703.818121 
L 587.88 723.790507 
L 593.46 744.828664 
L 599.04 766.687697 
L 621.36 856.556556 
L 626.94 878.101949 
L 632.52 898.687621 
L 638.1 918.054987 
L 643.68 935.979691 
L 649.26 952.277922 
L 654.84 966.811155 
L 660.42 979.489151 
L 666 990.271152 
L 671.58 999.165266 
L 677.16 1006.226121 
L 682.74 1011.550914 
L 688.32 1015.274074 
L 693.9 1017.560769 
L 699.48 1018.599564 
L 705.06 1018.594552 
L 710.64 1017.757267 
L 716.22 1016.298741 
L 721.8 1014.421997 
L 738.54 1008.057715 
L 744.12 1006.163638 
L 749.7 1004.548128 
L 755.28 1003.264635 
L 760.86 1002.337063 
L 766.44 1001.762089 
L 772.02 1001.512621 
L 777.6 1001.542185 
L 783.18 1001.789997 
L 794.34 1002.658775 
L 805.5 1003.556193 
L 811.08 1003.866559 
L 816.66 1004.031145 
L 816.66 1004.031145 
" style="fill:none;stroke:#1f77b4;stroke-linecap:square;stroke-width:1.5;"/>
   </g>
   <g id="line2d_17">
    <path clip-path="url(#p41c1e8db63)" d="M 108 787.113476 
L 113.58 1005.215164 
L 158.22 1005.215164 
L 163.8 942.7852 
L 169.38 850.219926 
L 174.96 527.489094 
L 180.54 389.438739 
L 186.12 395.25257 
L 191.7 198.524415 
L 197.28 148.968376 
L 202.86 234.766811 
L 208.44 555.149543 
L 214.02 712.098547 
L 219.6 684.244967 
L 225.18 447.097004 
L 230.76 220.709929 
L 236.34 157.677957 
L 241.92 138.24 
L 247.5 201.626363 
L 253.08 352.458602 
L 258.66 176.781993 
L 264.24 148.074046 
L 269.82 266.798234 
L 275.4 619.699283 
L 280.98 549.354086 
L 286.56 298.603321 
L 292.14 266.186053 
L 297.72 459.021548 
L 303.3 730.834905 
L 308.88 874.710084 
L 314.46 958.01579 
L 320.04 902.191178 
L 325.62 415.993293 
L 331.2 262.744502 
L 336.78 302.814413 
L 342.36 668.220184 
L 347.94 369.016242 
L 353.52 366.575652 
L 359.1 285.17771 
L 364.68 319.076348 
L 370.26 780.526432 
L 375.84 541.674948 
L 381.42 246.661596 
L 387 299.438062 
L 392.58 713.858598 
L 398.16 975.484114 
L 403.74 612.906059 
L 409.32 319.686996 
L 414.9 353.643199 
L 420.48 413.276737 
L 426.06 405.389147 
L 431.64 276.645815 
L 437.22 419.261363 
L 442.8 795.824334 
L 448.38 450.358795 
L 453.96 478.122374 
L 459.54 743.024575 
L 465.12 611.159358 
L 470.7 316.320625 
L 476.28 383.700051 
L 481.86 313.592022 
L 487.44 448.681761 
L 493.02 1005.215164 
L 498.6 607.513146 
L 504.18 464.906396 
L 509.76 408.139264 
L 515.34 525.377808 
L 520.92 648.310444 
L 526.5 784.925232 
L 532.08 790.11932 
L 537.66 585.134845 
L 543.24 480.861441 
L 548.82 583.717868 
L 554.4 544.526982 
L 559.98 791.627312 
L 565.56 609.382937 
L 571.14 566.597469 
L 576.72 659.018601 
L 582.3 661.849786 
L 587.88 774.239264 
L 593.46 683.119025 
L 599.04 731.532087 
L 604.62 692.054186 
L 610.2 870.856084 
L 615.78 858.765359 
L 621.36 878.255085 
L 626.94 894.351713 
L 632.52 875.077679 
L 638.1 1005.215164 
L 643.68 987.901608 
L 649.26 932.457142 
L 654.84 1005.215164 
L 660.42 966.572081 
L 666 1005.215164 
L 816.66 1005.215164 
L 816.66 1005.215164 
" style="fill:none;stroke:#ff7f0e;stroke-linecap:square;stroke-width:1.5;"/>
   </g>
   <g id="patch_3">
    <path d="M 108 1025.28 
L 108 138.24 
" style="fill:none;stroke:#000000;stroke-linecap:square;stroke-linejoin:miter;stroke-width:0.8;"/>
   </g>
   <g id="patch_4">
    <path d="M 777.6 1025.28 
L 777.6 138.24 
" style="fill:none;stroke:#000000;stroke-linecap:square;stroke-linejoin:miter;stroke-width:0.8;"/>
   </g>
   <g id="patch_5">
    <path d="M 108 1025.28 
L 777.6 1025.28 
" style="fill:none;stroke:#000000;stroke-linecap:square;stroke-linejoin:miter;stroke-width:0.8;"/>
   </g>
   <g id="patch_6">
    <path d="M 108 138.24 
L 777.6 138.24 
" style="fill:none;stroke:#000000;stroke-linecap:square;stroke-linejoin:miter;stroke-width:0.8;"/>
   </g>
  </g>
 </g>
 <defs>
  <clipPath id="p41c1e8db63">
   <rect height="887.04" width="669.6" x="108" y="138.24"/>
  </clipPath>
 </defs>
</svg>
